<?xml version="1.0" encoding="UTF-8"?>
<svg width="1192px" height="285px" viewBox="0 0 1192 285" version="1.1" xmlns="http://www.w3.org/2000/svg" xmlns:xlink="http://www.w3.org/1999/xlink">
    <title>Le Pitch Web white</title>
    <g id="Page-1" stroke="none" stroke-width="1" fill="none" fill-rule="evenodd">
        <g id="Le-Pitch-Web-white" transform="translate(1.000000, 1.000000)">
            <path d="M141.699,0 C219.958,0 283.399,63.441 283.399,141.699 C283.399,219.96 219.958,283.399 141.699,283.399 C63.441,283.399 0,219.96 0,141.699 C0,63.441 63.441,0 141.699,0" id="Fill-1"></path>
            <path d="M141.699,0 C219.958,0 283.399,63.441 283.399,141.699 C283.399,219.96 219.958,283.399 141.699,283.399 C63.441,283.399 0,219.96 0,141.699 C0,63.441 63.441,0 141.699,0 Z" id="Stroke-2" stroke="#FFFFFF"></path>
            <path d="M979.472,123.196 C978.496,125.439 975.87,126.484 973.628,125.514 C971.373,124.544 970.328,121.913 971.304,119.665 L981.784,95.544 C982.748,93.298 985.374,92.253 987.628,93.226 C989.871,94.196 990.916,96.828 989.94,99.076 L979.472,123.196" id="Fill-4" fill="#34A3D0"></path>
            <path d="M177.273,122.947 C176.294,125.207 173.651,126.258 171.391,125.282 C169.128,124.306 168.091,121.666 169.056,119.397 L178.836,96.436 C179.8,94.17 182.458,93.124 184.718,94.1 C186.98,95.076 188.018,97.725 187.053,99.985 L177.273,122.947" id="Fill-5" fill="#34A3D0"></path>
            <path d="M223.925,94.1 C221.666,93.124 219.025,94.179 218.043,96.436 L184.564,173.985 L169.067,138.292 C168.091,136.035 165.448,134.981 163.186,135.959 C162.021,136.462 161.132,137.426 160.725,138.618 C160.67,138.722 160.618,138.827 160.574,138.934 L145.356,173.985 L122.044,120.281 C121.616,118.454 121.043,116.658 120.304,114.904 C118.569,110.788 116.144,107.07 112.998,103.898 C109.826,100.7 106.134,98.219 101.995,96.441 C98.829,95.079 95.526,94.246 92.119,93.891 L92.119,93.699 L61.519,93.699 C60.246,93.699 59.087,94.141 58.167,95.021 C57.205,95.982 56.767,97.159 56.767,98.475 C56.767,99.776 57.214,100.92 58.097,101.879 C59.029,102.849 60.206,103.346 61.519,103.346 L88.605,103.346 C92.067,103.346 95.436,103.997 98.579,105.463 C101.554,106.852 104.197,108.722 106.439,111.119 C108.638,113.463 110.337,116.156 111.531,119.139 C112.719,122.11 113.324,125.198 113.324,128.393 C113.324,131.614 112.737,134.705 111.531,137.694 C110.346,140.639 108.641,143.294 106.434,145.583 C104.168,147.93 101.501,149.754 98.527,151.102 C95.294,152.56 91.806,153.153 88.273,153.153 L61.304,153.153 C59.927,153.153 58.756,153.797 57.905,154.849 C57.144,155.79 56.767,156.912 56.767,158.125 L56.767,184.947 C56.767,186.179 57.211,187.289 58.024,188.207 C58.933,189.235 60.156,189.7 61.519,189.7 C62.817,189.7 63.979,189.217 64.896,188.305 C65.817,187.387 66.271,186.243 66.271,184.947 L66.271,162.657 L88.151,162.657 C92.863,162.657 97.458,161.808 101.81,159.99 C105.952,158.259 109.672,155.836 112.868,152.688 C116.037,149.55 118.485,145.868 120.248,141.778 C120.482,141.235 120.701,140.688 120.904,140.137 L141.249,186.998 C142.228,189.257 144.871,190.309 147.131,189.333 C148.194,188.875 149.04,188.026 149.484,186.958 L164.963,151.305 L180.457,186.998 C181.436,189.257 184.079,190.309 186.336,189.333 C187.405,188.875 188.247,188.026 188.694,186.958 L226.261,99.985 C227.242,97.728 226.188,95.079 223.925,94.1" id="Fill-6" fill="#FFFFFF"></path>
            <path d="M223.925,94.1 C221.666,93.124 219.025,94.179 218.043,96.436 L184.564,173.985 L169.067,138.292 C168.091,136.035 165.448,134.981 163.186,135.959 C162.021,136.462 161.132,137.426 160.725,138.618 C160.67,138.722 160.618,138.827 160.574,138.934 L145.356,173.985 L122.044,120.281 C121.616,118.454 121.043,116.658 120.304,114.904 C118.569,110.788 116.144,107.07 112.998,103.898 C109.826,100.7 106.134,98.219 101.995,96.441 C98.829,95.079 95.526,94.246 92.119,93.891 L92.119,93.699 L61.519,93.699 C60.246,93.699 59.087,94.141 58.167,95.021 C57.205,95.982 56.767,97.159 56.767,98.475 C56.767,99.776 57.214,100.92 58.097,101.879 C59.029,102.849 60.206,103.346 61.519,103.346 L88.605,103.346 C92.067,103.346 95.436,103.997 98.579,105.463 C101.554,106.852 104.197,108.722 106.439,111.119 C108.638,113.463 110.337,116.156 111.531,119.139 C112.719,122.11 113.324,125.198 113.324,128.393 C113.324,131.614 112.737,134.705 111.531,137.694 C110.346,140.639 108.641,143.294 106.434,145.583 C104.168,147.93 101.501,149.754 98.527,151.102 C95.294,152.56 91.806,153.153 88.273,153.153 L61.304,153.153 C59.927,153.153 58.756,153.797 57.905,154.849 C57.144,155.79 56.767,156.912 56.767,158.125 L56.767,184.947 C56.767,186.179 57.211,187.289 58.024,188.207 C58.933,189.235 60.156,189.7 61.519,189.7 C62.817,189.7 63.979,189.217 64.896,188.305 C65.817,187.387 66.271,186.243 66.271,184.947 L66.271,162.657 L88.151,162.657 C92.863,162.657 97.458,161.808 101.81,159.99 C105.952,158.259 109.672,155.836 112.868,152.688 C116.037,149.55 118.485,145.868 120.248,141.778 C120.482,141.235 120.701,140.688 120.904,140.137 L141.249,186.998 C142.228,189.257 144.871,190.309 147.131,189.333 C148.194,188.875 149.04,188.026 149.484,186.958 L164.963,151.305 L180.457,186.998 C181.436,189.257 184.079,190.309 186.336,189.333 C187.405,188.875 188.247,188.026 188.694,186.958 L226.261,99.985 C227.242,97.728 226.188,95.079 223.925,94.1 Z" id="Stroke-7" stroke="#231F20"></path>
            <path d="M797.639,137.142 L855.778,137.142 L855.778,98.774 C855.778,97.467 856.267,96.296 857.231,95.373 C858.184,94.492 859.322,94.054 860.624,94.054 C861.901,94.054 863.063,94.504 863.981,95.416 C864.888,96.325 865.364,97.484 865.364,98.774 L865.364,184.808 C865.364,186.115 864.876,187.253 863.912,188.183 C862.982,189.037 861.879,189.525 860.624,189.525 C859.322,189.525 858.184,189.06 857.208,188.16 C856.278,187.253 855.778,186.115 855.778,184.808 L855.778,146.583 L797.639,146.583 L797.639,184.808 C797.639,186.091 797.186,187.23 796.268,188.142 C795.361,189.048 794.199,189.525 792.91,189.525 C791.62,189.525 790.493,189.048 789.575,188.142 C788.669,187.23 788.192,186.097 788.192,184.808 L788.192,98.774 C788.192,97.484 788.669,96.325 789.575,95.416 C790.493,94.504 791.62,94.054 792.91,94.054 C794.199,94.054 795.361,94.504 796.268,95.413 C797.186,96.325 797.639,97.487 797.639,98.774 L797.639,137.142" id="Fill-8" fill="#FFFFFF"></path>
            <path d="M797.639,137.142 L855.778,137.142 L855.778,98.774 C855.778,97.467 856.267,96.296 857.231,95.373 C858.184,94.492 859.322,94.054 860.624,94.054 C861.901,94.054 863.063,94.504 863.981,95.416 C864.888,96.325 865.364,97.484 865.364,98.774 L865.364,184.808 C865.364,186.115 864.876,187.253 863.912,188.183 C862.982,189.037 861.879,189.525 860.624,189.525 C859.322,189.525 858.184,189.06 857.208,188.16 C856.278,187.253 855.778,186.115 855.778,184.808 L855.778,146.583 L797.639,146.583 L797.639,184.808 C797.639,186.091 797.186,187.23 796.268,188.142 C795.361,189.048 794.199,189.525 792.91,189.525 C791.62,189.525 790.493,189.048 789.575,188.142 C788.669,187.23 788.192,186.097 788.192,184.808 L788.192,98.774 C788.192,97.484 788.669,96.325 789.575,95.416 C790.493,94.504 791.62,94.054 792.91,94.054 C794.199,94.054 795.361,94.504 796.268,95.413 C797.186,96.325 797.639,97.487 797.639,98.774 L797.639,137.142 Z" id="Stroke-9" stroke="#231F20"></path>
            <path d="M773.854,107.828 C774.715,108.763 775.226,109.887 775.226,111.168 C775.226,112.409 774.772,113.515 773.878,114.477 C772.96,115.397 771.81,115.885 770.497,115.885 C769.195,115.885 768.046,115.397 767.128,114.482 C763.352,110.738 759.006,107.726 754.08,105.702 C749.374,103.773 744.459,102.773 739.37,102.773 C734.107,102.773 729.007,103.747 724.161,105.835 C719.514,107.845 715.343,110.643 711.776,114.253 C708.221,117.861 705.467,122.058 703.469,126.72 C701.4,131.562 700.437,136.671 700.437,141.935 C700.437,147.093 701.4,152.066 703.387,156.824 C705.316,161.489 708.023,165.671 711.544,169.286 C715.087,172.927 719.247,175.746 723.895,177.795 C728.774,179.957 733.968,180.927 739.313,180.951 C744.366,180.973 749.281,180.096 753.987,178.272 C758.925,176.361 763.235,173.386 766.988,169.674 C767.93,168.739 769.103,168.268 770.428,168.268 C771.612,168.268 772.67,168.687 773.669,169.535 C774.599,170.464 775.075,171.626 775.075,172.939 C775.075,174.223 774.645,175.391 773.738,176.297 C769.08,180.957 763.7,184.657 757.542,187.062 C751.663,189.357 745.54,190.536 739.231,190.536 C734.862,190.536 730.528,189.96 726.322,188.77 C722.279,187.625 718.41,186.022 714.785,183.902 C711.195,181.81 707.93,179.266 705.002,176.315 C702.074,173.364 699.553,170.075 697.45,166.479 C695.336,162.842 693.721,158.939 692.582,154.883 C691.408,150.667 690.839,146.338 690.839,141.958 C690.839,137.729 691.396,133.552 692.512,129.474 C693.604,125.471 695.161,121.64 697.206,118.026 C699.239,114.43 701.702,111.107 704.549,108.104 C707.431,105.06 710.707,102.445 714.297,100.267 C717.969,98.042 721.907,96.36 726.032,95.172 C730.4,93.915 734.909,93.331 739.452,93.331 C745.772,93.331 751.907,94.583 757.763,96.982 C763.828,99.471 769.173,103.151 773.854,107.828" id="Fill-10" fill="#FFFFFF"></path>
            <path d="M773.854,107.828 C774.715,108.763 775.226,109.887 775.226,111.168 C775.226,112.409 774.772,113.515 773.878,114.477 C772.96,115.397 771.81,115.885 770.497,115.885 C769.195,115.885 768.046,115.397 767.128,114.482 C763.352,110.738 759.006,107.726 754.08,105.702 C749.374,103.773 744.459,102.773 739.37,102.773 C734.107,102.773 729.007,103.747 724.161,105.835 C719.514,107.845 715.343,110.643 711.776,114.253 C708.221,117.861 705.467,122.058 703.469,126.72 C701.4,131.562 700.437,136.671 700.437,141.935 C700.437,147.093 701.4,152.066 703.387,156.824 C705.316,161.489 708.023,165.671 711.544,169.286 C715.087,172.927 719.247,175.746 723.895,177.795 C728.774,179.957 733.968,180.927 739.313,180.951 C744.366,180.973 749.281,180.096 753.987,178.272 C758.925,176.361 763.235,173.386 766.988,169.674 C767.93,168.739 769.103,168.268 770.428,168.268 C771.612,168.268 772.67,168.687 773.669,169.535 C774.599,170.464 775.075,171.626 775.075,172.939 C775.075,174.223 774.645,175.391 773.738,176.297 C769.08,180.957 763.7,184.657 757.542,187.062 C751.663,189.357 745.54,190.536 739.231,190.536 C734.862,190.536 730.528,189.96 726.322,188.77 C722.279,187.625 718.41,186.022 714.785,183.902 C711.195,181.81 707.93,179.266 705.002,176.315 C702.074,173.364 699.553,170.075 697.45,166.479 C695.336,162.842 693.721,158.939 692.582,154.883 C691.408,150.667 690.839,146.338 690.839,141.958 C690.839,137.729 691.396,133.552 692.512,129.474 C693.604,125.471 695.161,121.64 697.206,118.026 C699.239,114.43 701.702,111.107 704.549,108.104 C707.431,105.06 710.707,102.445 714.297,100.267 C717.969,98.042 721.907,96.36 726.032,95.172 C730.4,93.915 734.909,93.331 739.452,93.331 C745.772,93.331 751.907,94.583 757.763,96.982 C763.828,99.471 769.173,103.151 773.854,107.828 Z" id="Stroke-11" stroke="#231F20"></path>
            <path d="M665.196,103.639 L665.196,184.808 C665.196,186.091 664.72,187.236 663.825,188.166 C662.907,189.125 661.711,189.6 660.375,189.6 C659.038,189.6 657.865,189.135 656.912,188.142 C656.053,187.212 655.611,186.075 655.611,184.808 L655.611,103.639 L627.83,103.639 C626.529,103.639 625.379,103.148 624.438,102.204 C623.52,101.257 623.044,100.113 623.044,98.797 C623.044,97.493 623.531,96.322 624.473,95.419 C625.402,94.527 626.553,94.054 627.83,94.054 L692.977,94.054 C694.324,94.054 695.545,94.51 696.497,95.535 C697.334,96.479 697.764,97.603 697.764,98.87 C697.764,100.165 697.357,101.333 696.428,102.297 C695.486,103.232 694.278,103.639 692.977,103.639 L665.196,103.639" id="Fill-12" fill="#FFFFFF"></path>
            <path d="M665.196,103.639 L665.196,184.808 C665.196,186.091 664.72,187.236 663.825,188.166 C662.907,189.125 661.711,189.6 660.375,189.6 C659.038,189.6 657.865,189.135 656.912,188.142 C656.053,187.212 655.611,186.075 655.611,184.808 L655.611,103.639 L627.83,103.639 C626.529,103.639 625.379,103.148 624.438,102.204 C623.52,101.257 623.044,100.113 623.044,98.797 C623.044,97.493 623.531,96.322 624.473,95.419 C625.402,94.527 626.553,94.054 627.83,94.054 L692.977,94.054 C694.324,94.054 695.545,94.51 696.497,95.535 C697.334,96.479 697.764,97.603 697.764,98.87 C697.764,100.165 697.357,101.333 696.428,102.297 C695.486,103.232 694.278,103.639 692.977,103.639 L665.196,103.639 Z" id="Stroke-13" stroke="#231F20"></path>
            <path d="M614.33,184.808 C614.33,186.091 613.876,187.23 612.959,188.142 C612.053,189.048 610.891,189.525 609.601,189.525 C608.311,189.525 607.184,189.048 606.267,188.142 C605.36,187.23 604.884,186.097 604.884,184.808 L604.884,98.774 C604.884,97.461 605.349,96.279 606.289,95.37 C607.207,94.489 608.334,94.054 609.601,94.054 C610.867,94.054 612.018,94.489 612.936,95.367 C613.888,96.279 614.33,97.464 614.33,98.774 L614.33,184.808" id="Fill-14" fill="#FFFFFF"></path>
            <path d="M614.33,184.808 C614.33,186.091 613.876,187.23 612.959,188.142 C612.053,189.048 610.891,189.525 609.601,189.525 C608.311,189.525 607.184,189.048 606.267,188.142 C605.36,187.23 604.884,186.097 604.884,184.808 L604.884,98.774 C604.884,97.461 605.349,96.279 606.289,95.37 C607.207,94.489 608.334,94.054 609.601,94.054 C610.867,94.054 612.018,94.489 612.936,95.367 C613.888,96.279 614.33,97.464 614.33,98.774 L614.33,184.808 Z" id="Stroke-15" stroke="#231F20"></path>
            <path d="M561.4,94.246 C564.787,94.594 568.072,95.425 571.215,96.775 C575.331,98.544 578.997,101.007 582.151,104.188 C585.277,107.34 587.688,111.035 589.41,115.125 C591.203,119.377 592.06,123.868 592.06,128.483 C592.06,133.096 591.185,137.595 589.358,141.833 C587.604,145.897 585.169,149.556 582.021,152.67 C578.843,155.801 575.146,158.212 571.032,159.932 C566.707,161.739 562.141,162.582 557.459,162.582 L535.714,162.582 L535.714,184.732 C535.714,186.022 535.261,187.155 534.349,188.067 C533.437,188.979 532.281,189.456 530.994,189.456 C529.638,189.456 528.42,188.997 527.517,187.968 C526.71,187.056 526.268,185.953 526.268,184.732 L526.268,158.073 C526.268,156.871 526.646,155.755 527.401,154.82 C528.246,153.774 529.408,153.135 530.776,153.135 L557.581,153.135 C561.092,153.135 564.555,152.548 567.771,151.096 C570.725,149.76 573.376,147.948 575.627,145.612 C577.82,143.34 579.514,140.7 580.693,137.772 C581.893,134.804 582.474,131.73 582.474,128.532 C582.474,125.354 581.873,122.285 580.693,119.333 C579.505,116.371 577.815,113.692 575.633,111.363 C573.405,108.981 570.777,107.125 567.823,105.745 C564.697,104.287 561.348,103.639 557.909,103.639 L530.994,103.639 C529.687,103.639 528.517,103.146 527.593,102.181 C526.71,101.229 526.268,100.09 526.268,98.797 C526.268,97.49 526.704,96.322 527.66,95.367 C528.575,94.489 529.725,94.054 530.994,94.054 L561.4,94.054 L561.4,94.246" id="Fill-16" fill="#FFFFFF"></path>
            <path d="M561.4,94.246 C564.787,94.594 568.072,95.425 571.215,96.775 C575.331,98.544 578.997,101.007 582.151,104.188 C585.277,107.34 587.688,111.035 589.41,115.125 C591.203,119.377 592.06,123.868 592.06,128.483 C592.06,133.096 591.185,137.595 589.358,141.833 C587.604,145.897 585.169,149.556 582.021,152.67 C578.843,155.801 575.146,158.212 571.032,159.932 C566.707,161.739 562.141,162.582 557.459,162.582 L535.714,162.582 L535.714,184.732 C535.714,186.022 535.261,187.155 534.349,188.067 C533.437,188.979 532.281,189.456 530.994,189.456 C529.638,189.456 528.42,188.997 527.517,187.968 C526.71,187.056 526.268,185.953 526.268,184.732 L526.268,158.073 C526.268,156.871 526.646,155.755 527.401,154.82 C528.246,153.774 529.408,153.135 530.776,153.135 L557.581,153.135 C561.092,153.135 564.555,152.548 567.771,151.096 C570.725,149.76 573.376,147.948 575.627,145.612 C577.82,143.34 579.514,140.7 580.693,137.772 C581.893,134.804 582.474,131.73 582.474,128.532 C582.474,125.354 581.873,122.285 580.693,119.333 C579.505,116.371 577.815,113.692 575.633,111.363 C573.405,108.981 570.777,107.125 567.823,105.745 C564.697,104.287 561.348,103.639 557.909,103.639 L530.994,103.639 C529.687,103.639 528.517,103.146 527.593,102.181 C526.71,101.229 526.268,100.09 526.268,98.797 C526.268,97.49 526.704,96.322 527.66,95.367 C528.575,94.489 529.725,94.054 530.994,94.054 L561.4,94.054 L561.4,94.246 Z" id="Stroke-17" stroke="#231F20"></path>
            <path d="M423.666,103.639 L423.666,135.989 L462.261,135.989 C463.637,135.916 464.852,136.387 465.772,137.421 C466.609,138.365 467.044,139.518 467.044,140.779 C467.044,142.045 466.603,143.19 465.706,144.09 C464.791,145.002 463.614,145.432 462.324,145.432 L423.666,145.432 L423.666,179.94 L475.436,179.94 C476.726,179.94 477.885,180.421 478.794,181.328 C479.706,182.24 480.159,183.402 480.159,184.686 C480.159,186.004 479.735,187.172 478.817,188.166 C477.891,189.13 476.703,189.6 475.416,189.525 L418.646,189.525 L418.563,189.519 C417.284,189.385 416.169,188.851 415.355,187.84 C414.598,186.905 414.226,185.795 414.226,184.587 L414.226,98.774 C414.226,97.4 414.729,96.154 415.78,95.256 C416.729,94.449 417.848,94.054 419.091,94.054 L475.436,94.054 C476.703,94.054 477.856,94.489 478.797,95.393 C479.724,96.322 480.159,97.49 480.159,98.797 C480.159,100.09 479.718,101.229 478.817,102.204 C477.911,103.146 476.743,103.639 475.436,103.639 L423.666,103.639" id="Fill-18" fill="#FFFFFF"></path>
            <path d="M423.666,103.639 L423.666,135.989 L462.261,135.989 C463.637,135.916 464.852,136.387 465.772,137.421 C466.609,138.365 467.044,139.518 467.044,140.779 C467.044,142.045 466.603,143.19 465.706,144.09 C464.791,145.002 463.614,145.432 462.324,145.432 L423.666,145.432 L423.666,179.94 L475.436,179.94 C476.726,179.94 477.885,180.421 478.794,181.328 C479.706,182.24 480.159,183.402 480.159,184.686 C480.159,186.004 479.735,187.172 478.817,188.166 C477.891,189.13 476.703,189.6 475.416,189.525 L418.646,189.525 L418.563,189.519 C417.284,189.385 416.169,188.851 415.355,187.84 C414.598,186.905 414.226,185.795 414.226,184.587 L414.226,98.774 C414.226,97.4 414.729,96.154 415.78,95.256 C416.729,94.449 417.848,94.054 419.091,94.054 L475.436,94.054 C476.703,94.054 477.856,94.489 478.797,95.393 C479.724,96.322 480.159,97.49 480.159,98.797 C480.159,100.09 479.718,101.229 478.817,102.204 C477.911,103.146 476.743,103.639 475.436,103.639 L423.666,103.639 Z" id="Stroke-19" stroke="#231F20"></path>
            <path d="M348.443,179.94 L398.413,180.015 C399.653,180.015 400.763,180.468 401.698,181.333 C402.639,182.234 403.133,183.378 403.133,184.686 C403.133,186.028 402.668,187.202 401.721,188.183 C400.794,189.113 399.65,189.6 398.387,189.525 L343.067,189.525 L342.916,189.501 C341.815,189.292 340.854,188.758 340.119,187.916 C339.346,187.021 339,185.929 339,184.755 L339,98.774 C339,97.464 339.462,96.27 340.389,95.343 C341.298,94.431 342.437,93.978 343.723,93.978 C345.007,93.978 346.166,94.431 347.078,95.343 C348.008,96.273 348.443,97.467 348.443,98.774 L348.443,179.94" id="Fill-20" fill="#FFFFFF"></path>
            <path d="M348.443,179.94 L398.413,180.015 C399.653,180.015 400.763,180.468 401.698,181.333 C402.639,182.234 403.133,183.378 403.133,184.686 C403.133,186.028 402.668,187.202 401.721,188.183 C400.794,189.113 399.65,189.6 398.387,189.525 L343.067,189.525 L342.916,189.501 C341.815,189.292 340.854,188.758 340.119,187.916 C339.346,187.021 339,185.929 339,184.755 L339,98.774 C339,97.464 339.462,96.27 340.389,95.343 C341.298,94.431 342.437,93.978 343.723,93.978 C345.007,93.978 346.166,94.431 347.078,95.343 C348.008,96.273 348.443,97.467 348.443,98.774 L348.443,179.94 Z" id="Stroke-21" stroke="#231F20"></path>
            <path d="M963.031,138.769 C963.427,137.583 964.321,136.625 965.471,136.125 C967.726,135.155 970.34,136.201 971.315,138.443 L986.722,173.916 L1020.74,95.544 C1021.72,93.298 1024.34,92.253 1026.59,93.226 C1028.84,94.196 1029.89,96.828 1028.91,99.076 L990.823,186.806 C990.37,187.87 989.533,188.711 988.477,189.17 C986.234,190.141 983.608,189.095 982.632,186.847 L967.237,151.38 L951.854,186.806 C951.412,187.87 950.576,188.711 949.519,189.17 C947.276,190.141 944.65,189.095 943.675,186.847 L915.917,122.923 C914.941,120.678 915.987,118.046 918.241,117.073 C920.483,116.106 923.109,117.149 924.085,119.394 L947.753,173.916 L962.88,139.082 C962.927,138.975 962.974,138.873 963.031,138.769" id="Fill-22" fill="#FFFFFF"></path>
            <path d="M963.031,138.769 C963.427,137.583 964.321,136.625 965.471,136.125 C967.726,135.155 970.34,136.201 971.315,138.443 L986.722,173.916 L1020.74,95.544 C1021.72,93.298 1024.34,92.253 1026.59,93.226 C1028.84,94.196 1029.89,96.828 1028.91,99.076 L990.823,186.806 C990.37,187.87 989.533,188.711 988.477,189.17 C986.234,190.141 983.608,189.095 982.632,186.847 L967.237,151.38 L951.854,186.806 C951.412,187.87 950.576,188.711 949.519,189.17 C947.276,190.141 944.65,189.095 943.675,186.847 L915.917,122.923 C914.941,120.678 915.987,118.046 918.241,117.073 C920.483,116.106 923.109,117.149 924.085,119.394 L947.753,173.916 L962.88,139.082 C962.927,138.975 962.974,138.873 963.031,138.769 Z" id="Stroke-23" stroke="#231F20"></path>
            <path d="M1050.47,103.639 L1050.47,135.989 L1089.07,135.989 C1090.44,135.916 1091.65,136.387 1092.58,137.421 C1093.42,138.365 1093.85,139.518 1093.85,140.779 C1093.85,142.045 1093.41,143.19 1092.51,144.09 C1091.59,145.002 1090.42,145.432 1089.13,145.432 L1050.47,145.432 L1050.47,179.94 L1102.25,179.94 C1103.53,179.94 1104.69,180.421 1105.59,181.328 C1106.51,182.24 1106.96,183.402 1106.96,184.686 C1106.96,186.004 1106.53,187.172 1105.63,188.166 C1104.7,189.13 1103.51,189.6 1102.22,189.525 L1045.46,189.525 L1045.36,189.519 C1044.1,189.385 1042.97,188.851 1042.16,187.84 C1041.4,186.905 1041.03,185.795 1041.03,184.587 L1041.03,98.774 C1041.03,97.4 1041.53,96.154 1042.58,95.256 C1043.54,94.449 1044.65,94.054 1045.9,94.054 L1102.25,94.054 C1103.51,94.054 1104.66,94.489 1105.6,95.393 C1106.53,96.322 1106.96,97.49 1106.96,98.797 C1106.96,100.09 1106.52,101.229 1105.63,102.204 C1104.72,103.146 1103.55,103.639 1102.25,103.639 L1050.47,103.639" id="Fill-24" fill="#FFFFFF"></path>
            <path d="M1050.47,103.639 L1050.47,135.989 L1089.07,135.989 C1090.44,135.916 1091.65,136.387 1092.58,137.421 C1093.42,138.365 1093.85,139.518 1093.85,140.779 C1093.85,142.045 1093.41,143.19 1092.51,144.09 C1091.59,145.002 1090.42,145.432 1089.13,145.432 L1050.47,145.432 L1050.47,179.94 L1102.25,179.94 C1103.53,179.94 1104.69,180.421 1105.59,181.328 C1106.51,182.24 1106.96,183.402 1106.96,184.686 C1106.96,186.004 1106.53,187.172 1105.63,188.166 C1104.7,189.13 1103.51,189.6 1102.22,189.525 L1045.46,189.525 L1045.36,189.519 C1044.1,189.385 1042.97,188.851 1042.16,187.84 C1041.4,186.905 1041.03,185.795 1041.03,184.587 L1041.03,98.774 C1041.03,97.4 1041.53,96.154 1042.58,95.256 C1043.54,94.449 1044.65,94.054 1045.9,94.054 L1102.25,94.054 C1103.51,94.054 1104.66,94.489 1105.6,95.393 C1106.53,96.322 1106.96,97.49 1106.96,98.797 C1106.96,100.09 1106.52,101.229 1105.63,102.204 C1104.72,103.146 1103.55,103.639 1102.25,103.639 L1050.47,103.639 Z" id="Stroke-25" stroke="#231F20"></path>
            <path d="M1141.83,134.545 L1160.52,134.545 C1162.68,134.545 1164.78,134.179 1166.75,133.296 C1168.6,132.462 1170.26,131.338 1171.69,129.889 C1173.09,128.462 1174.17,126.822 1174.95,124.971 C1175.72,123.124 1176.12,121.192 1176.12,119.188 C1176.12,117.192 1175.74,115.261 1174.99,113.411 C1174.23,111.543 1173.16,109.878 1171.79,108.412 C1170.39,106.933 1168.74,105.786 1166.89,104.929 C1164.98,104.034 1162.92,103.639 1160.81,103.639 L1127.33,103.639 C1126.03,103.639 1124.86,103.148 1123.95,102.204 C1123.06,101.231 1122.62,100.093 1122.62,98.8 C1122.62,97.493 1123.04,96.325 1123.97,95.396 C1124.92,94.489 1126.07,94.054 1127.33,94.054 L1161.03,94.054 C1164.38,94.054 1167.65,94.675 1170.73,96.017 C1173.68,97.304 1176.3,99.102 1178.55,101.42 C1180.78,103.721 1182.51,106.384 1183.78,109.33 C1185.08,112.388 1185.7,115.624 1185.7,118.947 C1185.7,123.269 1184.73,127.374 1182.61,131.146 C1181.02,133.987 1178.98,136.43 1176.49,138.443 C1177.96,139.28 1179.33,140.244 1180.62,141.345 C1182.58,143.015 1184.29,144.944 1185.72,147.087 C1187.17,149.266 1188.27,151.642 1189.03,154.146 C1189.82,156.778 1190.17,159.502 1190.17,162.25 C1190.17,166.026 1189.47,169.698 1187.95,173.16 C1186.48,176.448 1184.45,179.365 1181.84,181.828 C1179.2,184.302 1176.13,186.179 1172.76,187.486 C1169.16,188.886 1165.38,189.519 1161.53,189.519 L1127.36,189.519 C1126.07,189.594 1124.88,189.119 1123.95,188.16 C1123.03,187.167 1122.62,185.999 1122.62,184.68 C1122.62,183.396 1123.07,182.234 1123.97,181.322 C1124.89,180.416 1126.04,179.934 1127.33,179.934 L1161.43,179.934 C1164.09,179.934 1166.71,179.498 1169.17,178.469 C1171.44,177.535 1173.49,176.227 1175.22,174.497 C1176.91,172.823 1178.22,170.876 1179.15,168.693 C1180.1,166.485 1180.58,164.173 1180.58,161.768 C1180.58,159.339 1180.14,156.946 1179.14,154.721 C1178.19,152.589 1176.86,150.689 1175.15,149.103 C1173.37,147.448 1171.31,146.21 1169.04,145.344 C1166.54,144.386 1163.88,143.985 1161.22,143.985 L1127.33,143.985 C1126.04,143.985 1124.87,143.561 1123.95,142.643 C1123.06,141.743 1122.62,140.604 1122.62,139.338 C1122.62,138.074 1123.04,136.921 1123.88,135.977 C1124.81,134.943 1126.02,134.473 1127.39,134.545 L1141.83,134.545" id="Fill-26" fill="#FFFFFF"></path>
            <path d="M1141.83,134.545 L1160.52,134.545 C1162.68,134.545 1164.78,134.179 1166.75,133.296 C1168.6,132.462 1170.26,131.338 1171.69,129.889 C1173.09,128.462 1174.17,126.822 1174.95,124.971 C1175.72,123.124 1176.12,121.192 1176.12,119.188 C1176.12,117.192 1175.74,115.261 1174.99,113.411 C1174.23,111.543 1173.16,109.878 1171.79,108.412 C1170.39,106.933 1168.74,105.786 1166.89,104.929 C1164.98,104.034 1162.92,103.639 1160.81,103.639 L1127.33,103.639 C1126.03,103.639 1124.86,103.148 1123.95,102.204 C1123.06,101.231 1122.62,100.093 1122.62,98.8 C1122.62,97.493 1123.04,96.325 1123.97,95.396 C1124.92,94.489 1126.07,94.054 1127.33,94.054 L1161.03,94.054 C1164.38,94.054 1167.65,94.675 1170.73,96.017 C1173.68,97.304 1176.3,99.102 1178.55,101.42 C1180.78,103.721 1182.51,106.384 1183.78,109.33 C1185.08,112.388 1185.7,115.624 1185.7,118.947 C1185.7,123.269 1184.73,127.374 1182.61,131.146 C1181.02,133.987 1178.98,136.43 1176.49,138.443 C1177.96,139.28 1179.33,140.244 1180.62,141.345 C1182.58,143.015 1184.29,144.944 1185.72,147.087 C1187.17,149.266 1188.27,151.642 1189.03,154.146 C1189.82,156.778 1190.17,159.502 1190.17,162.25 C1190.17,166.026 1189.47,169.698 1187.95,173.16 C1186.48,176.448 1184.45,179.365 1181.84,181.828 C1179.2,184.302 1176.13,186.179 1172.76,187.486 C1169.16,188.886 1165.38,189.519 1161.53,189.519 L1127.36,189.519 C1126.07,189.594 1124.88,189.119 1123.95,188.16 C1123.03,187.167 1122.62,185.999 1122.62,184.68 C1122.62,183.396 1123.07,182.234 1123.97,181.322 C1124.89,180.416 1126.04,179.934 1127.33,179.934 L1161.43,179.934 C1164.09,179.934 1166.71,179.498 1169.17,178.469 C1171.44,177.535 1173.49,176.227 1175.22,174.497 C1176.91,172.823 1178.22,170.876 1179.15,168.693 C1180.1,166.485 1180.58,164.173 1180.58,161.768 C1180.58,159.339 1180.14,156.946 1179.14,154.721 C1178.19,152.589 1176.86,150.689 1175.15,149.103 C1173.37,147.448 1171.31,146.21 1169.04,145.344 C1166.54,144.386 1163.88,143.985 1161.22,143.985 L1127.33,143.985 C1126.04,143.985 1124.87,143.561 1123.95,142.643 C1123.06,141.743 1122.62,140.604 1122.62,139.338 C1122.62,138.074 1123.04,136.921 1123.88,135.977 C1124.81,134.943 1126.02,134.473 1127.39,134.545 L1141.83,134.545 Z" id="Stroke-27" stroke="#231F20"></path>
            <polygon id="Fill-29" fill="#FFFFFF" points="1122.62 184.68 1132.05 184.68 1132.05 98.8 1122.62 98.8"></polygon>
            <polygon id="Stroke-30" stroke="#231F20" points="1122.62 184.68 1132.05 184.68 1132.05 98.8 1122.62 98.8"></polygon>
        </g>
    </g>
</svg>